<?xml version="1.0" encoding="UTF-8"?>
<svg width="112px" height="112px" viewBox="0 0 112 112" version="1.1" xmlns="http://www.w3.org/2000/svg" xmlns:xlink="http://www.w3.org/1999/xlink">
    <!-- Generator: Sketch 52.5 (67469) - http://www.bohemiancoding.com/sketch -->
    <title>icon/中心点工具</title>
    <desc>Created with Sketch.</desc>
    <defs>
        <rect id="path-1" x="0" y="0" width="68" height="68"></rect>
        <path d="M60.96966,36.7567568 C59.6798823,49.526851 49.526851,59.6798823 36.7567568,60.96966 L36.7567568,65.2432432 C36.7567568,66.765758 35.5225147,68 34,68 C32.4774853,68 31.2432432,66.765758 31.2432432,65.2432432 L31.2432432,60.96966 C18.473149,59.6798823 8.32011772,49.526851 7.03033999,36.7567568 L2.75675676,36.7567568 C1.23424204,36.7567568 3.55256944e-16,35.5225147 1.68802667e-16,34 C-1.76516104e-17,32.4774853 1.23424204,31.2432432 2.75675676,31.2432432 L7.03033999,31.2432432 C8.32011772,18.473149 18.473149,8.32011772 31.2432432,7.03033999 L31.2432432,2.75675676 C31.2432432,1.23424204 32.4774853,2.79681416e-16 34,0 C35.5225147,-2.79681416e-16 36.7567568,1.23424204 36.7567568,2.75675676 L36.7567568,7.03033999 C49.526851,8.32011772 59.6798823,18.473149 60.96966,31.2432432 L65.2432432,31.2432432 C66.765758,31.2432432 68,32.4774853 68,34 C68,35.5225147 66.765758,36.7567568 65.2432432,36.7567568 L60.96966,36.7567568 Z M54.4934936,36.7567568 L50.5405405,36.7567568 C49.0180258,36.7567568 47.7837838,35.5225147 47.7837838,34 C47.7837838,32.4774853 49.0180258,31.2432432 50.5405405,31.2432432 L54.4934936,31.2432432 C53.2658944,22.0295499 45.9704501,14.7341056 36.7567568,13.5065064 L36.7567568,17.4594595 C36.7567568,18.9819742 35.5225147,20.2162162 34,20.2162162 C32.4774853,20.2162162 31.2432432,18.9819742 31.2432432,17.4594595 L31.2432432,13.5065064 C22.0295499,14.7341056 14.7341056,22.0295499 13.5065064,31.2432432 L17.4594595,31.2432432 C18.9819742,31.2432432 20.2162162,32.4774853 20.2162162,34 C20.2162162,35.5225147 18.9819742,36.7567568 17.4594595,36.7567568 L13.5065064,36.7567568 C14.7341056,45.9704501 22.0295499,53.2658944 31.2432432,54.4934936 L31.2432432,50.5405405 C31.2432432,49.0180258 32.4774853,47.7837838 34,47.7837838 C35.5225147,47.7837838 36.7567568,49.0180258 36.7567568,50.5405405 L36.7567568,54.4934936 C45.9704501,53.2658944 53.2658944,45.9704501 54.4934936,36.7567568 Z M34,36.7567568 C32.4774853,36.7567568 31.2432432,35.5225147 31.2432432,34 C31.2432432,32.4774853 32.4774853,31.2432432 34,31.2432432 C35.5225147,31.2432432 36.7567568,32.4774853 36.7567568,34 C36.7567568,35.5225147 35.5225147,36.7567568 34,36.7567568 Z" id="path-3"></path>
    </defs>
    <g id="icon/中心点工具" stroke="none" stroke-width="1" fill="none" fill-rule="evenodd">
        <g transform="translate(22.000000, 22.000000)">
            <mask id="mask-2" fill="white">
                <use xlink:href="#path-1"></use>
            </mask>
            <g id="Mask" fill-rule="nonzero"></g>
            <mask id="mask-4" fill="white">
                <use xlink:href="#path-3"></use>
            </mask>
            <use id="Combined-Shape" fill="#264165" fill-rule="nonzero" xlink:href="#path-3"></use>
        </g>
    </g>
</svg>