<?xml version="1.0" standalone="no"?><!DOCTYPE svg PUBLIC "-//W3C//DTD SVG 1.1//EN" "http://www.w3.org/Graphics/SVG/1.1/DTD/svg11.dtd"><svg t="1566554227090" class="icon" viewBox="0 0 1024 1024" version="1.1" xmlns="http://www.w3.org/2000/svg" p-id="1115" xmlns:xlink="http://www.w3.org/1999/xlink" width="200" height="200"><defs><style type="text/css"></style></defs><path d="M327.68 429.508267h368.64v300.757333A46.267733 46.267733 0 0 1 650.052267 776.533333H373.947733a46.267733 46.267733 0 0 1-46.267733-46.267733V429.508267z m92.16 69.410133a23.04 23.04 0 0 0-23.04 23.04v138.999467a23.04 23.04 0 0 0 46.08 0v-139.008a23.04 23.04 0 0 0-23.04-23.04z m92.16 0a23.04 23.04 0 0 0-23.04 23.04v138.999467a23.04 23.04 0 0 0 46.08 0v-139.008a23.04 23.04 0 0 0-23.04-23.04z m92.16 0a23.04 23.04 0 0 0-23.04 23.04v138.999467a23.04 23.04 0 0 0 46.08 0v-139.008a23.04 23.04 0 0 0-23.04-23.04zM442.88 325.4016v-46.267733A23.133867 23.133867 0 0 1 466.013867 256H557.994667a23.133867 23.133867 0 0 1 23.133866 23.133867v46.267733h126.574934a34.705067 34.705067 0 1 1 0 69.410133H316.305067a34.705067 34.705067 0 0 1 0-69.410133H442.88z" fill="#FD7D70" p-id="1116"></path></svg>