<?xml version="1.0" encoding="UTF-8"?>
<svg width="54px" height="61px" viewBox="0 0 54 61" version="1.1" xmlns="http://www.w3.org/2000/svg" xmlns:xlink="http://www.w3.org/1999/xlink">
    <!-- Generator: Sketch 52.5 (67469) - http://www.bohemiancoding.com/sketch -->
    <title>Shape</title>
    <desc>Created with Sketch.</desc>
    <g id="角色绘制" stroke="none" stroke-width="1" fill="none" fill-rule="evenodd">
        <g id="1.5.0角色编辑-选择工具" transform="translate(-249.000000, -206.000000)" fill="#FD7D70" fill-rule="nonzero">
            <g id="Group-4" transform="translate(0.000000, 100.000000)">
                <g id="icon/画笔-删除" transform="translate(220.000000, 80.000000)">
                    <g id="icon/画笔-选中">
                        <g id="icon/表情面板-清空未点击" transform="translate(20.000000, 20.000000)">
                            <g id="Shape">
                                <path d="M14.4,26.3333333 L57.6,26.3333333 L57.6,61.5777778 C57.6,64.5723884 55.1723884,67 52.1777778,67 L19.8222222,67 C16.8276116,67 14.4,64.5723884 14.4,61.5777778 L14.4,26.3333333 Z M25.2,34.4666667 C23.7088312,34.4666667 22.5,35.6754978 22.5,37.1666667 L22.5,53.4555556 C22.5,54.9467244 23.7088312,56.1555556 25.2,56.1555556 C26.6911688,56.1555556 27.9,54.9467244 27.9,53.4555556 L27.9,37.1666667 C27.9,35.6754978 26.6911688,34.4666667 25.2,34.4666667 Z M36,34.4666667 C34.5088312,34.4666667 33.3,35.6754978 33.3,37.1666667 L33.3,53.4555556 C33.3,54.9467244 34.5088312,56.1555556 36,56.1555556 C37.4911688,56.1555556 38.7,54.9467244 38.7,53.4555556 L38.7,37.1666667 C38.7,35.6754978 37.4911688,34.4666667 36,34.4666667 Z M46.8,34.4666667 C45.3088312,34.4666667 44.1,35.6754978 44.1,37.1666667 L44.1,53.4555556 C44.1,54.9467244 45.3088312,56.1555556 46.8,56.1555556 C48.2911688,56.1555556 49.5,54.9467244 49.5,53.4555556 L49.5,37.1666667 C49.5,35.6754978 48.2911688,34.4666667 46.8,34.4666667 Z M27.9,14.1333333 L27.9,8.71111111 C27.9,7.21380579 29.1138058,6 30.6111111,6 L41.3888889,6 C42.8861942,6 44.1,7.21380579 44.1,8.71111111 L44.1,14.1333333 L58.9333333,14.1333333 C61.1792913,14.1333333 63,15.954042 63,18.2 C63,20.445958 61.1792913,22.2666667 58.9333333,22.2666667 L13.0666667,22.2666667 C10.8207087,22.2666667 9,20.445958 9,18.2 C9,15.954042 10.8207087,14.1333333 13.0666667,14.1333333 L27.9,14.1333333 Z"></path>
                            </g>
                        </g>
                    </g>
                </g>
            </g>
        </g>
    </g>
</svg>