<?xml version="1.0" standalone="no"?><!DOCTYPE svg PUBLIC "-//W3C//DTD SVG 1.1//EN" "http://www.w3.org/Graphics/SVG/1.1/DTD/svg11.dtd"><svg t="1566554158731" class="icon" viewBox="0 0 1024 1024" version="1.1" xmlns="http://www.w3.org/2000/svg" p-id="1888" xmlns:xlink="http://www.w3.org/1999/xlink" width="200" height="200"><defs><style type="text/css"></style></defs><path d="M516.571429 612.571429l-27.136-135.168c-2.514286-12.534857 5.805714-24.713143 18.596571-27.181715a23.981714 23.981714 0 0 1 16.758857 2.898286l126.564572 75.017143 6.930285 4.114286L815.424 625.371429a22.902857 22.902857 0 0 1 8 31.780571c-3.090286 5.019429-8.009143 8.704-13.769143 10.304l-133.165714 41.718857-79.158857 104.118857c-7.634286 10.368-22.381714 12.708571-32.950857 5.220572a23.113143 23.113143 0 0 1-9.334858-14.290286L525.741714 658.285714 516.571429 612.571429zM320 347.428571h-45.714286v-43.611428A29.531429 29.531429 0 0 1 303.817143 274.285714H329.142857v45.714286h-9.142857v27.428571z m0 30.116572v45.174857h-45.714286v-45.165714h45.714286z m0 75.291428v45.184h-45.714286v-45.184h45.714286z m0 75.300572v45.165714h-45.714286v-45.165714h45.714286zM320 603.428571v9.142858h9.142857v45.714285h-25.325714A29.531429 29.531429 0 0 1 274.285714 628.754286V603.428571h45.714286z m39.259429 9.142858h45.174857v45.714285h-45.165715v-45.714285z m75.291428 0h45.184v45.714285h-45.184v-45.714285zM612.571429 498.011429v-45.165715h45.714285v45.165715h-45.714285z m0-75.291429v-45.165714h45.714285v45.165714h-45.714285zM612.571429 347.428571v-27.428571h-27.428572v-45.714286h43.611429A29.531429 29.531429 0 0 1 658.285714 303.817143V347.428571h-45.714285z m-57.545143-27.428571h-45.174857v-45.714286h45.165714v45.714286z m-75.291429 0h-45.184v-45.714286h45.184v45.714286z m-75.300571 0h-45.165715v-45.714286h45.165715v45.714286z" fill="#264165" p-id="1889"></path></svg>