<?xml version="1.0" encoding="UTF-8"?>
<svg width="112px" height="112px" viewBox="0 0 112 112" version="1.1" xmlns="http://www.w3.org/2000/svg" xmlns:xlink="http://www.w3.org/1999/xlink">
    <!-- Generator: Sketch 52.5 (67469) - http://www.bohemiancoding.com/sketch -->
    <title>icon/矩形工具</title>
    <desc>Created with Sketch.</desc>
    <defs>
        <rect id="path-1" x="0" y="0" width="68" height="68"></rect>
        <path d="M14.7407407,13.7777778 C14.208911,13.7777778 13.7777778,14.208911 13.7777778,14.7407407 L13.7777778,53.2592593 C13.7777778,53.791089 14.208911,54.2222222 14.7407407,54.2222222 L53.2592593,54.2222222 C53.791089,54.2222222 54.2222222,53.791089 54.2222222,53.2592593 L54.2222222,14.7407407 C54.2222222,14.208911 53.791089,13.7777778 53.2592593,13.7777778 L14.7407407,13.7777778 Z M14.7407407,8 L53.2592593,8 C56.9820676,8 60,11.0179324 60,14.7407407 L60,53.2592593 C60,56.9820676 56.9820676,60 53.2592593,60 L14.7407407,60 C11.0179324,60 8,56.9820676 8,53.2592593 L8,14.7407407 C8,11.0179324 11.0179324,8 14.7407407,8 Z" id="path-3"></path>
    </defs>
    <g id="icon/矩形工具" stroke="none" stroke-width="1" fill="none" fill-rule="evenodd">
        <g transform="translate(22.000000, 22.000000)">
            <mask id="mask-2" fill="white">
                <use xlink:href="#path-1"></use>
            </mask>
            <g id="Mask" fill-rule="nonzero"></g>
            <mask id="mask-4" fill="white">
                <use xlink:href="#path-3"></use>
            </mask>
            <use id="Rectangle" fill="#264165" fill-rule="nonzero" xlink:href="#path-3"></use>
        </g>
    </g>
</svg>