<svg height="20" viewBox="0 0 20 20" width="20" xmlns="http://www.w3.org/2000/svg"><path d="m12.5787225 11.2102026c-.9590941.9590941-1.6657951 1.4512608-2.2210601 1.6405557-.1640555-.5047864-.44168803-.9717138-.83289746-1.3629232-.40382909-.3912094-.87075648-.6688419-1.37554285-.8455172.20191455-.555265.69408126-1.26196587 1.64055569-2.20844031 2.27153862-2.2841583 6.30982962-5.07310298 7.07962882-4.30330377s-2.0191455 4.80809014-4.2906841 7.07962878zm-4.18747916 4.2018078c-.37555137.3628553-.86013379.5501355-1.34471621.5735455v.011705h-.1211456c-3.24670219.1170501-4.66410576-3.558323-3.5495662-3.1720577 1.46586181.5033154 2.06068672-.2223952 2.08370439-.2458052.81167555-.7725307 2.12004807-.7725307 2.93172362 0 .81167555.7842357.81167555 2.0600818 0 2.8326124z" style="stroke:#575e75;stroke-width:.5;fill:#575e75;fill-rule:evenodd;stroke-linecap:round;stroke-linejoin:round"/></svg>