<?xml version="1.0" encoding="UTF-8"?>
<svg width="12px" height="12px" viewBox="0 0 12 12" version="1.1" xmlns="http://www.w3.org/2000/svg" xmlns:xlink="http://www.w3.org/1999/xlink">
    <!-- Generator: Sketch 52.2 (67145) - http://www.bohemiancoding.com/sketch -->
    <title>Untitled 2</title>
    <desc>Created with Sketch.</desc>
    <g id="Page-1" stroke="none" stroke-width="1" fill="none" fill-rule="evenodd">
        <g id="center" transform="translate(1.000000, 1.000000)" fill="#575E75" fill-rule="nonzero">
            <path d="M9.53117448,5.46851562 L9.03318277,5.46851562 C8.81818636,7.33724458 7.33654438,8.81729391 5.46857553,9.03263441 L5.46857553,9.53131771 C5.46857553,9.79016379 5.25874981,10 4.99991667,10 C4.74108353,10 4.53125781,9.79016379 4.53125781,9.53131771 L4.53125781,9.03296776 C2.66328895,8.81729391 1.18164698,7.33724458 0.966983891,5.46851562 L0.468658858,5.46851562 C0.209825718,5.46851562 3.03814406e-17,5.25867941 0,4.99983333 C-3.1466492e-17,4.74098725 0.209825718,4.53115104 0.468658858,4.53115104 L0.966983891,4.53115104 C1.18498493,2.6599684 2.66081501,1.18420253 4.53192446,0.966365553 L4.53192446,0.468682292 C4.53192446,0.20983621 4.74175018,4.77446509e-17 5.00058332,0 C5.25941646,-4.66595452e-17 5.46924218,0.20983621 5.46924218,0.468682292 L5.46924218,0.967032241 C7.34013147,1.18495058 8.81562527,2.66079416 9.03318277,4.53181772 L9.53117448,4.53181772 C9.79009966,4.53181772 10,4.74172856 10,5.00066669 C10,5.25960482 9.79009966,5.46951565 9.53117448,5.46951565 L9.53117448,5.46851562 Z M7.18754687,4.53181772 L8.08586524,4.53181772 C7.88057264,3.18012926 6.82009168,2.11905502 5.46857553,1.91306378 L5.46857553,2.81242708 C5.46857553,3.07127316 5.25874981,3.28110937 4.99991667,3.28110937 C4.74108353,3.28110937 4.53125781,3.07127316 4.53125781,2.81242708 L4.53125781,1.91373047 C3.17955975,2.11924442 2.11864389,3.18007825 1.91296812,4.53181772 L2.81261979,4.53181772 C3.07154497,4.53181773 3.28144529,4.74172856 3.28144529,5.00066669 C3.28144529,5.25960481 3.07154497,5.46951564 2.81261979,5.46951565 L1.91430144,5.46951565 C2.12016541,6.82078925 3.18069223,7.88123404 4.53192446,8.08693623 L4.53192446,7.18757292 C4.53192446,6.92872684 4.74175018,6.71889063 5.00058332,6.71889063 C5.25941646,6.71889063 5.46924218,6.92872684 5.46924218,7.18757292 L5.46924218,8.08693623 C6.82039583,7.88071784 7.88051753,6.81986786 8.08586524,5.46851562 L7.18754687,5.46851562 C6.92871373,5.46851562 6.71888802,5.25867941 6.71888802,4.99983333 C6.71888802,4.74098725 6.92871373,4.53115104 7.18754687,4.53115104 L7.18754687,4.53181772 Z M4.99991667,5.46851562 C4.74108353,5.46851562 4.53125781,5.25867941 4.53125781,4.99983333 C4.53125781,4.74098725 4.74108353,4.53115104 4.99991667,4.53115104 C5.25874981,4.53115104 5.46857553,4.74098725 5.46857553,4.99983333 C5.46857553,5.25867941 5.25874981,5.46851562 4.99991667,5.46851562 Z" id="Shape"></path>
        </g>
    </g>
</svg>