<svg width="112px" height="112px" viewBox="0 0 112 112" version="1.1" xmlns="http://www.w3.org/2000/svg" xmlns:xlink="http://www.w3.org/1999/xlink">
    <defs>
        <rect id="path-1" x="0" y="0" width="68" height="68"></rect>
        <path d="M21.7626854,57.9743024 C15.5731967,57.8310087 10.678313,53.8843061 7.07803431,46.1341946 C6.99297144,45.9510847 6.97221585,45.7446204 7.01912935,45.5482431 C7.13416341,45.0667169 7.61777103,44.7696163 8.09929721,44.8846504 L8.09930306,44.8846259 C11.8735347,45.7862698 14.4991621,45.4428513 15.9761851,43.8543703 C16.022525,43.8045335 16.0692196,43.7553217 16.1162687,43.7067349 C17.6622756,41.9979054 19.8882603,40.9195254 22.3655955,40.9015989 C22.411821,40.8985112 22.4581931,40.8956819 22.5047118,40.8931109 L22.5045152,40.9017062 C27.1759845,40.9427306 30.9502973,44.7545234 30.9502973,49.4506859 C30.9502973,54.1723417 27.1348955,58 22.4283588,58 C22.2043438,58 21.9823475,57.9913287 21.7626854,57.9743024 Z M34.4580148,26.9272316 C45.4923581,15.4641287 57.0104955,8.6641805 60.1844947,11.7391221 C63.3584939,14.8140637 56.9864259,26.5994773 45.9520825,38.0625802 C43.7214779,40.379859 40.3624886,43.4176479 35.8751144,47.175947 L35.8750888,47.1759164 C35.4955511,47.4937896 34.9301879,47.4438007 34.6123147,47.064263 C34.5382123,46.9757855 34.4818927,46.8738308 34.4464488,46.7639983 C33.7964515,44.7498023 32.884352,43.0342289 31.7101504,41.6172781 C30.4757361,40.1276664 28.8267027,38.8269413 26.76305,37.7151029 L26.7630648,37.7150756 C26.327224,37.4802567 26.1642635,36.9365797 26.3990823,36.5007389 C26.4231001,36.4561601 26.450852,36.4136966 26.4820403,36.373804 C29.702997,32.2539066 32.3616552,29.1050491 34.4580148,26.9272316 Z" id="path-3"></path>
    </defs>
    <g id="icon/画笔" stroke="none" stroke-width="1" fill="none" fill-rule="evenodd">
        <g id="icon/画笔-选中" transform="translate(23.000000, 22.000000)">
            <mask id="mask-2" fill="white">
                <use xlink:href="#path-1"></use>
            </mask>
            <g id="Rectangle" fill-rule="nonzero"></g>
            <mask id="mask-4" fill="white">
                <use xlink:href="#path-3"></use>
            </mask>
            <use id="Combined-Shape" fill="#264165" fill-rule="nonzero" xlink:href="#path-3"></use>
        </g>
    </g>
</svg>