<svg width="112px" height="112px" viewBox="0 0 112 112" version="1.1" xmlns="http://www.w3.org/2000/svg" xmlns:xlink="http://www.w3.org/1999/xlink">
    <defs>
        <rect id="path-1" x="0" y="0" width="68" height="68"></rect>
        <path d="M54.7004271,30.3104576 C57.3709026,30.2272229 59.4566525,30.289428 60.9576768,30.497073 C64.1722032,30.9417562 66.5753132,32.2116075 67.336209,32.6795014 C68.7668503,33.5592386 69.7208226,35.1390913 69.7208226,36.9417562 C69.7208226,39.7031799 67.4822464,41.9417562 64.7208226,41.9417562 C63.3300536,41.9417562 61.8213779,41.3740319 60.9576768,40.4433967 C58.5241612,37.293178 56.7660179,35.5126995 54.7413938,33.9417562 C54.6263582,33.8524979 54.5119543,33.7625065 54.398182,33.671782 L51.7677372,64.4801283 C51.6678881,65.6450338 50.9003671,66.6458062 49.8011974,67.044304 C44.4778836,68.9742415 39.1235853,69.9417562 33.7475394,69.9417562 C28.3717874,69.9417562 23.0016495,68.9743564 17.6461153,67.0449237 C16.5440303,66.6479365 15.7738348,65.6457888 15.6737812,64.4784967 L12.7626148,30.4789527 C12.7619492,30.4711797 12.7613291,30.4634134 12.7607541,30.4556539 C12.7342569,30.287485 12.7208226,30.1161804 12.7208226,29.9417562 C12.7208226,26.973075 16.6124095,24.9081152 22.5649704,23.8250503 C22.684589,16.3563075 24.8371706,10.805241 28.9180015,10.0856804 C33.4642268,9.28405826 37.7322922,14.8014067 40.4142455,23.2298916 C48.8096119,23.9968878 54.7208226,26.2829584 54.7208226,29.9417562 C54.7208226,30.0662478 54.7139791,30.1891502 54.7004271,30.3104576 Z M40.1792048,36.6746404 C38.152017,36.8520419 35.9834013,36.9417562 33.7208226,36.9417562 C31.8050251,36.9417562 29.9565947,36.8774351 28.204346,36.7500235 C28.7725894,38.917025 29.465547,40.9406478 30.2520506,42.7363979 C30.6951909,43.7481787 30.2342167,44.9276253 29.2224359,45.3707656 C28.210655,45.813906 27.0312084,45.3529318 26.5880681,44.3411509 C25.5376454,41.9428191 24.647785,39.2087171 23.9712279,36.2904636 C21.2885739,35.8910014 18.9588132,35.3100095 17.1261411,34.5536456 L19.0612404,57.1536912 C31.294991,56.3120701 38.3343125,49.4857198 40.1792048,36.6746404 Z M26.6045145,23.2700186 C28.8178869,23.0520986 31.2115708,22.9417562 33.7208226,22.9417562 C34.5270042,22.9417562 35.3212565,22.9531461 36.1014324,22.9758342 C34.0155831,17.2214527 31.2345373,13.7389191 29.6125943,14.0249115 C28.0010106,14.3090771 26.7745053,17.9962822 26.6045145,23.2700186 Z M22.6895256,27.906917 C22.0220812,28.0393046 21.3887868,28.1840539 20.7947804,28.3403713 C19.2401495,28.7494847 18.0311124,29.2204349 17.270483,29.6936796 C17.1285193,29.7820059 17.0099327,29.8656733 16.9147863,29.9417562 C17.0099327,30.017839 17.1285193,30.1015065 17.270483,30.1898327 C18.0311124,30.6630775 19.2401495,31.1340276 20.7947804,31.543141 C21.5276928,31.7360127 22.3204164,31.9112732 23.1632999,32.0674321 C22.9472151,30.6501024 22.7894556,29.2586664 22.6895256,27.906917 Z M26.6734711,27.3082871 C26.7807409,29.0056748 26.9877642,30.7974087 27.3102904,32.6408798 C29.3235091,32.8370609 31.4888662,32.9417562 33.7208226,32.9417562 C38.6668245,32.9417562 43.2857812,32.4276367 46.6468649,31.543141 C48.2014958,31.1340276 49.4105329,30.6630775 50.1711623,30.1898327 C50.313126,30.1015065 50.4317126,30.017839 50.5268589,29.9417562 C50.4317126,29.8656733 50.313126,29.7820059 50.1711623,29.6936796 C49.4105329,29.2204349 48.2014958,28.7494847 46.6468649,28.3403713 C43.2857812,27.4558756 38.6668245,26.9417562 33.7208226,26.9417562 C31.2515852,26.9417562 28.8638603,27.0698951 26.6734711,27.3082871 Z" id="path-3"></path>
    </defs>
    <g id="icon/颜料桶" stroke="none" stroke-width="1" fill="none" fill-rule="evenodd">
        <g transform="translate(21.000000, 22.000000)">
            <mask id="mask-2" fill="white">
                <use xlink:href="#path-1"></use>
            </mask>
            <g id="Mask" fill-rule="nonzero"></g>
            <mask id="mask-4" fill="white">
                <use xlink:href="#path-3"></use>
            </mask>
            <use id="Combined-Shape" fill="#264165" fill-rule="nonzero" transform="translate(41.220823, 39.975137) rotate(-315.000000) translate(-41.220823, -39.975137) " xlink:href="#path-3"></use>
        </g>
    </g>
</svg>