<svg width="40px" height="40px" viewBox="0 0 40 40" version="1.1" xmlns="http://www.w3.org/2000/svg" xmlns:xlink="http://www.w3.org/1999/xlink">
    <defs>
        <rect id="path-1" x="0" y="0" width="40" height="40"></rect>
    </defs>
    <g id="icon/吸管" stroke="none" stroke-width="1" fill="none" fill-rule="evenodd">
        <g>
            <mask id="mask-2" fill="white">
                <use xlink:href="#path-1"></use>
            </mask>
            <g id="Mask" fill-rule="nonzero"></g>
            <path d="M22.839746,15 L16.839746,15 L16.839746,30.8134665 C16.839746,32.2999647 17.9208893,33.5339483 19.339746,33.7719873 L19.339746,37.3134665 C19.339746,37.5896089 19.5636036,37.8134665 19.839746,37.8134665 C20.1158883,37.8134665 20.339746,37.5896089 20.339746,37.3134665 L20.339746,33.7719873 C21.7586026,33.5339483 22.839746,32.2999647 22.839746,30.8134665 L22.839746,15 Z M14.839746,15 L12,15 C10.8954305,15 10,14.1045695 10,13 C10,11.8954305 10.8954305,11 12,11 L14,11 L14,6 C14,2.6862915 16.6862915,6.08718376e-16 20,0 C23.3137085,-6.08718376e-16 26,2.6862915 26,6 L26,11 L28,11 C29.1045695,11 30,11.8954305 30,13 C30,14.1045695 29.1045695,15 28,15 L24.839746,15 L24.839746,30.8134665 C24.839746,32.6489571 23.8447448,34.2750054 22.339746,35.1448534 L22.339746,37.3134665 C22.339746,38.6941784 21.2204578,39.8134665 19.839746,39.8134665 C18.4590341,39.8134665 17.339746,38.6941784 17.339746,37.3134665 L17.339746,35.1448534 C15.8347471,34.2750054 14.839746,32.6489571 14.839746,30.8134665 L14.839746,15 Z" id="Shape" fill="#264165" fill-rule="nonzero" mask="url(#mask-2)" transform="translate(20.000000, 19.906733) rotate(-330.000000) translate(-20.000000, -19.906733) "></path>
        </g>
    </g>
</svg>