<svg width="60" height="60" xmlns="http://www.w3.org/2000/svg"><g fill="#FFF" fill-rule="evenodd"><rect opacity=".28" x="27" width="6" height="15" rx="3"/><rect opacity=".76" x="27" y="45" width="6" height="15" rx="3"/><rect opacity=".6" transform="rotate(120 49.48557 41.25)" x="46.48557" y="33.75" width="6" height="15" rx="3"/><rect opacity=".12" transform="rotate(120 10.51443 18.75)" x="7.51443" y="11.25" width="6" height="15" rx="3"/><rect opacity=".84" transform="rotate(-150 18.75 49.48557)" x="15.75" y="41.98557" width="6" height="15" rx="3"/><rect opacity=".36" transform="rotate(-150 41.25 10.51443)" x="38.25" y="3.01443" width="6" height="15" rx="3"/><rect opacity=".2" transform="rotate(-30 18.75 10.51443)" x="15.75" y="3.01443" width="6" height="15" rx="3"/><rect opacity=".68" transform="rotate(-30 41.25 49.48557)" x="38.25" y="41.98557" width="6" height="15" rx="3"/><rect transform="rotate(-90 7.5 30)" x="4.5" y="22.5" width="6" height="15" rx="3"/><rect opacity=".52" transform="rotate(-90 52.5 30)" x="49.5" y="22.5" width="6" height="15" rx="3"/><rect opacity=".44" transform="rotate(60 49.48557 18.75)" x="46.48557" y="11.25" width="6" height="15" rx="3"/><rect opacity=".92" transform="rotate(60 10.51443 41.25)" x="7.51443" y="33.75" width="6" height="15" rx="3"/></g></svg>