<svg width="112px" height="112px" viewBox="0 0 112 112" version="1.1" xmlns="http://www.w3.org/2000/svg" xmlns:xlink="http://www.w3.org/1999/xlink">
    <defs>
        <path d="M63.1370071,69.9302242 L63.1370071,82.8432676 C63.1370071,86.1569761 60.4507156,88.8432676 57.1370071,88.8432676 C53.8232986,88.8432676 51.1370071,86.1569761 51.1370071,82.8432676 L51.1370071,69.9302242 L40.6596872,73.5745093 C39.0947937,74.1188201 37.3849458,73.2914744 36.840635,71.7265808 C36.5909158,71.0086383 36.6230413,70.2226687 36.9305193,69.5275009 L54.3934011,30.046203 C55.0636086,28.5309512 56.8352734,27.8459075 58.3505252,28.516115 C59.0331396,28.8180406 59.5786875,29.3635885 59.8806131,30.046203 L77.3434949,69.5275009 C78.0137024,71.0427527 77.3286587,72.8144175 75.813407,73.484625 C75.1182391,73.792103 74.3322695,73.8242285 73.614327,73.5745093 L63.1370071,69.9302242 Z" id="path-1"></path>
    </defs>
    <g id="icon/鼠标指针" stroke="none" stroke-width="1" fill="none" fill-rule="evenodd">
        <mask id="mask-2" fill="white">
            <use xlink:href="#path-1"></use>
        </mask>
        <use id="Combined-Shape" fill="#264165" fill-rule="nonzero" transform="translate(57.137383, 58.551118) rotate(-35.000000) translate(-57.137383, -58.551118) " xlink:href="#path-1"></use>
    </g>
</svg>