<?xml version="1.0" standalone="no"?><!DOCTYPE svg PUBLIC "-//W3C//DTD SVG 1.1//EN" "http://www.w3.org/Graphics/SVG/1.1/DTD/svg11.dtd"><svg t="1566289640274" class="icon" viewBox="0 0 1024 1024" version="1.1" xmlns="http://www.w3.org/2000/svg" p-id="3253" xmlns:xlink="http://www.w3.org/1999/xlink" width="200" height="200"><defs><style type="text/css"></style></defs><path d="M776.96 697.6c21.76 21.76 21.76 56.32 0 78.08s-56.32 21.76-78.08 0l-179.2-179.2-179.2 179.2c-21.76 21.76-56.32 21.76-78.08 0s-21.76-56.32 0-78.08l179.2-179.2-179.2-179.2c-21.76-21.76-21.76-56.32 0-78.08s56.32-21.76 78.08 0l179.2 179.2 179.2-179.2c21.76-21.76 56.32-21.76 78.08 0s21.76 56.32 0 78.08l-179.2 179.2 179.2 179.2z" p-id="3254" fill="#ffffff"></path></svg>