<?xml version="1.0" encoding="UTF-8"?>
<svg width="56px" height="56px" viewBox="0 0 56 56" version="1.1" xmlns="http://www.w3.org/2000/svg" xmlns:xlink="http://www.w3.org/1999/xlink">
    <!-- Generator: Sketch 52.5 (67469) - http://www.bohemiancoding.com/sketch -->
    <title>icon/缩小画布</title>
    <desc>Created with Sketch.</desc>
    <defs>
        <rect id="path-1" x="0" y="0" width="56" height="56"></rect>
    </defs>
    <g id="icon/缩小画布" stroke="none" stroke-width="1" fill="none" fill-rule="evenodd">
        <g id="缩小画布">
            <mask id="mask-2" fill="white">
                <use xlink:href="#path-1"></use>
            </mask>
            <g id="Mask" fill-rule="nonzero"></g>
            <path d="M44.0912669,39.8795072 C44.1857877,39.9536397 44.2768851,40.0342441 44.3639613,40.1213203 L51.4350291,47.1923882 C52.606602,48.363961 52.606602,50.263456 51.4350291,51.4350288 C50.2634563,52.6066017 48.3639613,52.6066017 47.1923884,51.4350288 L40.1213206,44.363961 C40.0342444,44.2768848 39.95364,44.1857874 39.8795075,44.0912667 C36.5577484,46.547657 32.4484806,48 28,48 C16.954305,48 8,39.045695 8,28 C8,16.954305 16.954305,8 28,8 C39.045695,8 48,16.954305 48,28 C48,32.4484805 46.5476571,36.5577481 44.0912669,39.8795072 Z M28,44 C36.836556,44 44,36.836556 44,28 C44,19.163444 36.836556,12 28,12 C19.163444,12 12,19.163444 12,28 C12,36.836556 19.163444,44 28,44 Z M20,26 L36,26 C37.1045695,26 38,26.8954305 38,28 C38,29.1045695 37.1045695,30 36,30 L20,30 C18.8954305,30 18,29.1045695 18,28 C18,26.8954305 18.8954305,26 20,26 Z" id="Combined-Shape" fill="#264165" fill-rule="nonzero" mask="url(#mask-2)"></path>
        </g>
    </g>
</svg>