<?xml version="1.0" encoding="UTF-8"?>
<svg width="56px" height="56px" viewBox="0 0 56 56" version="1.1" xmlns="http://www.w3.org/2000/svg" xmlns:xlink="http://www.w3.org/1999/xlink">
    <!-- Generator: Sketch 52.5 (67469) - http://www.bohemiancoding.com/sketch -->
    <title>icon/100%画布</title>
    <desc>Created with Sketch.</desc>
    <defs>
        <rect id="path-1" x="0" y="0" width="56" height="56"></rect>
    </defs>
    <g id="icon/100%画布" stroke="none" stroke-width="1" fill="none" fill-rule="evenodd">
        <g id="Combined-Shape">
            <g>
                <mask id="mask-2" fill="white">
                    <use xlink:href="#path-1"></use>
                </mask>
                <g id="Mask" fill-rule="nonzero"></g>
                <path d="M16.5,18 L39.5,18 C40.8807119,18 42,19.1192881 42,20.5 C42,21.8807119 40.8807119,23 39.5,23 L16.5,23 C15.1192881,23 14,21.8807119 14,20.5 C14,19.1192881 15.1192881,18 16.5,18 Z M16.5,33 L39.5,33 C40.8807119,33 42,34.1192881 42,35.5 C42,36.8807119 40.8807119,38 39.5,38 L16.5,38 C15.1192881,38 14,36.8807119 14,35.5 C14,34.1192881 15.1192881,33 16.5,33 Z" fill="#264165" fill-rule="nonzero" mask="url(#mask-2)"></path>
            </g>
        </g>
    </g>
</svg>