<?xml version="1.0" encoding="UTF-8"?>
<svg width="56px" height="56px" viewBox="0 0 56 56" version="1.1" xmlns="http://www.w3.org/2000/svg" xmlns:xlink="http://www.w3.org/1999/xlink">
    <!-- Generator: Sketch 52.5 (67469) - http://www.bohemiancoding.com/sketch -->
    <title>icon/放大画布</title>
    <desc>Created with Sketch.</desc>
    <defs>
        <rect id="path-1" x="0" y="0" width="56" height="56"></rect>
    </defs>
    <g id="icon/放大画布" stroke="none" stroke-width="1" fill="none" fill-rule="evenodd">
        <g>
            <mask id="mask-2" fill="white">
                <use xlink:href="#path-1"></use>
            </mask>
            <g id="Rectangle" fill-rule="nonzero"></g>
            <path d="M43.0912669,36.8795072 C43.1857877,36.9536397 43.2768851,37.0342441 43.3639613,37.1213203 L50.4350291,44.1923882 C51.606602,45.363961 51.606602,47.263456 50.4350291,48.4350288 C49.2634563,49.6066017 47.3639613,49.6066017 46.1923884,48.4350288 L39.1213206,41.363961 C39.0342444,41.2768848 38.95364,41.1857874 38.8795075,41.0912667 C35.5577484,43.547657 31.4484806,45 27,45 C15.954305,45 7,36.045695 7,25 C7,13.954305 15.954305,5 27,5 C38.045695,5 47,13.954305 47,25 C47,29.4484805 45.5476571,33.5577481 43.0912669,36.8795072 Z M27,41 C35.836556,41 43,33.836556 43,25 C43,16.163444 35.836556,9 27,9 C18.163444,9 11,16.163444 11,25 C11,33.836556 18.163444,41 27,41 Z M25,23 L25,17 C25,15.8954305 25.8954305,15 27,15 C28.1045695,15 29,15.8954305 29,17 L29,23 L35,23 C36.1045695,23 37,23.8954305 37,25 C37,26.1045695 36.1045695,27 35,27 L29,27 L29,33 C29,34.1045695 28.1045695,35 27,35 C25.8954305,35 25,34.1045695 25,33 L25,27 L19,27 C17.8954305,27 17,26.1045695 17,25 C17,23.8954305 17.8954305,23 19,23 L25,23 Z" id="Combined-Shape" fill="#264165" fill-rule="nonzero" mask="url(#mask-2)"></path>
        </g>
    </g>
</svg>